<?xml version="1.0" encoding="utf-8"?>

<!DOCTYPE svg PUBLIC "-//W3C//DTD SVG 1.1//EN" "http://www.w3.org/Graphics/SVG/1.1/DTD/svg11.dtd">
<!-- Uploaded to: SVG Repo, www.svgrepo.com, Generator: SVG Repo Mixer Tools -->
<svg height="800px" width="800px" version="1.1" id="_x32_" xmlns="http://www.w3.org/2000/svg" xmlns:xlink="http://www.w3.org/1999/xlink" 
	 viewBox="0 0 512 512"  xml:space="preserve">
<style type="text/css">
	.st0{fill:#000000;}
</style>
<g>
	<path class="st0" d="M493.409,370.168c0-109.597-75.965-214.36-176.965-244.446c2.23-6.615,3.358-13.404,3.358-20.213
		c0-35.183-28.622-63.805-63.802-63.805s-63.802,28.622-63.802,63.805c0,6.809,1.128,13.598,3.358,20.213
		c-101,30.086-176.963,134.849-176.963,244.446v1.592h474.816V370.168z M158.362,188.059c21.042,0,38.162,17.116,38.162,38.16
		c0,21.04-17.12,38.16-38.162,38.16s-38.162-17.12-38.162-38.16C120.2,205.175,137.32,188.059,158.362,188.059z M256,76.689
		c15.893,0,28.822,12.927,28.822,28.82c0,4.433-1.089,8.792-3.24,12.97c-8.702-1.075-17.302-1.619-25.582-1.619
		c-8.28,0-16.881,0.544-25.582,1.619c-2.15-4.177-3.24-8.536-3.24-12.97C227.178,89.616,240.107,76.689,256,76.689z"/>
	<path class="st0" d="M484.488,403.51H27.514C12.343,403.51,0,415.851,0,431.022v30.276c0,4.961,4.035,8.998,8.996,8.998h494.009
		c4.959,0,8.994-4.037,8.994-8.998v-30.276C512,415.851,499.659,403.51,484.488,403.51z"/>
</g>
</svg>